<mxfile host="app.diagrams.net" modified="2023-05-20T11:52:16.194Z" agent="Mozilla/5.0 (Windows NT 10.0; Win64; x64) AppleWebKit/537.36 (KHTML, like Gecko) Chrome/113.0.0.0 Safari/537.36 Edg/113.0.1774.50" etag="fqH5RJcTsJ0MJmlOq3Uv" version="21.3.2" type="github">
  <diagram id="iKGATuRTCjoq6KDAcJ7u" name="Page-1">
    <mxGraphModel dx="687" dy="427" grid="1" gridSize="10" guides="1" tooltips="1" connect="1" arrows="1" fold="1" page="1" pageScale="1" pageWidth="827" pageHeight="1169" math="0" shadow="0">
      <root>
        <mxCell id="0" />
        <mxCell id="1" parent="0" />
        <mxCell id="ze7nM6ytoODyEX_3U67M-3" value="0" style="whiteSpace=wrap;html=1;aspect=fixed;fontSize=16;fontStyle=0" vertex="1" parent="1">
          <mxGeometry x="320" y="200" width="40" height="40" as="geometry" />
        </mxCell>
        <mxCell id="ze7nM6ytoODyEX_3U67M-6" value="1" style="whiteSpace=wrap;html=1;aspect=fixed;fontSize=16;fontStyle=0" vertex="1" parent="1">
          <mxGeometry x="360" y="200" width="40" height="40" as="geometry" />
        </mxCell>
        <mxCell id="ze7nM6ytoODyEX_3U67M-7" value="3" style="whiteSpace=wrap;html=1;aspect=fixed;fontSize=16;fontStyle=0" vertex="1" parent="1">
          <mxGeometry x="400" y="200" width="40" height="40" as="geometry" />
        </mxCell>
        <mxCell id="ze7nM6ytoODyEX_3U67M-8" value="2" style="whiteSpace=wrap;html=1;aspect=fixed;fontSize=16;fontStyle=0" vertex="1" parent="1">
          <mxGeometry x="440" y="200" width="40" height="40" as="geometry" />
        </mxCell>
        <mxCell id="ze7nM6ytoODyEX_3U67M-9" value="4" style="whiteSpace=wrap;html=1;aspect=fixed;fontSize=16;fontStyle=0" vertex="1" parent="1">
          <mxGeometry x="320" y="240" width="40" height="40" as="geometry" />
        </mxCell>
        <mxCell id="ze7nM6ytoODyEX_3U67M-10" value="5" style="whiteSpace=wrap;html=1;aspect=fixed;fontSize=16;fontStyle=0" vertex="1" parent="1">
          <mxGeometry x="360" y="240" width="40" height="40" as="geometry" />
        </mxCell>
        <mxCell id="ze7nM6ytoODyEX_3U67M-11" value="7" style="whiteSpace=wrap;html=1;aspect=fixed;fontSize=16;fontStyle=0" vertex="1" parent="1">
          <mxGeometry x="400" y="240" width="40" height="40" as="geometry" />
        </mxCell>
        <mxCell id="ze7nM6ytoODyEX_3U67M-12" value="6" style="whiteSpace=wrap;html=1;aspect=fixed;fontSize=16;fontStyle=0" vertex="1" parent="1">
          <mxGeometry x="440" y="240" width="40" height="40" as="geometry" />
        </mxCell>
        <mxCell id="ze7nM6ytoODyEX_3U67M-13" value="12" style="whiteSpace=wrap;html=1;aspect=fixed;fontSize=16;fontStyle=0" vertex="1" parent="1">
          <mxGeometry x="320" y="280" width="40" height="40" as="geometry" />
        </mxCell>
        <mxCell id="ze7nM6ytoODyEX_3U67M-14" value="13" style="whiteSpace=wrap;html=1;aspect=fixed;fontSize=16;fontStyle=0" vertex="1" parent="1">
          <mxGeometry x="360" y="280" width="40" height="40" as="geometry" />
        </mxCell>
        <mxCell id="ze7nM6ytoODyEX_3U67M-15" value="15" style="whiteSpace=wrap;html=1;aspect=fixed;fontSize=16;fontStyle=0" vertex="1" parent="1">
          <mxGeometry x="400" y="280" width="40" height="40" as="geometry" />
        </mxCell>
        <mxCell id="ze7nM6ytoODyEX_3U67M-16" value="14" style="whiteSpace=wrap;html=1;aspect=fixed;fontSize=16;fontStyle=0" vertex="1" parent="1">
          <mxGeometry x="440" y="280" width="40" height="40" as="geometry" />
        </mxCell>
        <mxCell id="ze7nM6ytoODyEX_3U67M-17" value="8" style="whiteSpace=wrap;html=1;aspect=fixed;fontSize=16;fontStyle=0" vertex="1" parent="1">
          <mxGeometry x="320" y="320" width="40" height="40" as="geometry" />
        </mxCell>
        <mxCell id="ze7nM6ytoODyEX_3U67M-18" value="9" style="whiteSpace=wrap;html=1;aspect=fixed;fontSize=16;fontStyle=0" vertex="1" parent="1">
          <mxGeometry x="360" y="320" width="40" height="40" as="geometry" />
        </mxCell>
        <mxCell id="ze7nM6ytoODyEX_3U67M-19" value="11" style="whiteSpace=wrap;html=1;aspect=fixed;fontSize=16;fontStyle=0" vertex="1" parent="1">
          <mxGeometry x="400" y="320" width="40" height="40" as="geometry" />
        </mxCell>
        <mxCell id="ze7nM6ytoODyEX_3U67M-20" value="10" style="whiteSpace=wrap;html=1;aspect=fixed;fontSize=16;fontStyle=0" vertex="1" parent="1">
          <mxGeometry x="440" y="320" width="40" height="40" as="geometry" />
        </mxCell>
        <mxCell id="ze7nM6ytoODyEX_3U67M-22" value="D" style="shape=curlyBracket;whiteSpace=wrap;html=1;rounded=1;labelPosition=center;verticalLabelPosition=middle;align=center;verticalAlign=middle;rotation=90;fontSize=16;horizontal=0;spacingTop=-34;" vertex="1" parent="1">
          <mxGeometry x="390" y="150" width="20" height="80" as="geometry" />
        </mxCell>
        <mxCell id="ze7nM6ytoODyEX_3U67M-23" value="B" style="shape=curlyBracket;whiteSpace=wrap;html=1;rounded=1;flipH=1;labelPosition=right;verticalLabelPosition=middle;align=left;verticalAlign=middle;fontSize=16;" vertex="1" parent="1">
          <mxGeometry x="480" y="240" width="20" height="80" as="geometry" />
        </mxCell>
        <mxCell id="ze7nM6ytoODyEX_3U67M-24" value="A" style="shape=curlyBracket;whiteSpace=wrap;html=1;rounded=1;labelPosition=left;verticalLabelPosition=middle;align=right;verticalAlign=middle;fontSize=16;" vertex="1" parent="1">
          <mxGeometry x="300" y="280" width="20" height="80" as="geometry" />
        </mxCell>
        <mxCell id="ze7nM6ytoODyEX_3U67M-27" value="C" style="shape=curlyBracket;whiteSpace=wrap;html=1;rounded=1;flipH=1;labelPosition=center;verticalLabelPosition=middle;align=center;verticalAlign=middle;rotation=90;horizontal=0;fontSize=16;spacingTop=34;" vertex="1" parent="1">
          <mxGeometry x="430" y="330" width="20" height="80" as="geometry" />
        </mxCell>
      </root>
    </mxGraphModel>
  </diagram>
</mxfile>
